<svg width="114" height="24" viewBox="0 0 114 24" fill="none" xmlns="http://www.w3.org/2000/svg">
<path d="M23.0975 8.00905H15.9883V0.899808C15.9883 0.389863 16.3782 -9.53674e-05 16.8882 -9.53674e-05H23.0975C23.6075 -9.53674e-05 23.9974 0.389863 23.9974 0.899808V7.10914C23.9974 7.58909 23.6075 8.00905 23.0975 8.00905Z" fill="#F2FF66"/>
<path d="M15.987 15.9901H8.00781V8.91087C8.00781 8.40093 8.39777 8.01097 8.90772 8.01097H16.017V15.9901H15.987Z" fill="#F2FF66"/>
<path d="M7.10924 23.9999H0.899904C0.389958 23.9999 0 23.6099 0 23.1V16.8907C0 16.3807 0.389958 15.9908 0.899904 15.9908H8.00914V23.1C8.00914 23.6099 7.58919 23.9999 7.10924 23.9999Z" fill="#F2FF66"/>
<path d="M23.0975 23.9999H16.8882C16.3782 23.9999 15.9883 23.6099 15.9883 23.1V15.9908H23.0975C23.6075 15.9908 23.9974 16.3807 23.9974 16.8907V23.1C23.9974 23.6099 23.6075 23.9999 23.0975 23.9999Z" fill="#F2FF66"/>
<path d="M0.899904 -9.53674e-05H6.65929C7.16923 -9.53674e-05 7.40921 0.59984 7.04925 0.959802L0.959897 7.04915C0.599936 7.40911 0 7.13914 0 6.65919V0.899808C0 0.389863 0.389958 -9.53674e-05 0.899904 -9.53674e-05Z" fill="#F2FF66"/>
<path d="M31.9961 23.6534V-9.53674e-05H47.7052V4.1231H37.0124V9.75929H46.6626V13.8825H37.0124V23.6534H31.9961Z" fill="white"/>
<path d="M55.7587 -9.53674e-05V23.6534H50.8235V-9.53674e-05H55.7587Z" fill="white"/>
<path d="M67.5888 23.9999C65.7893 23.9999 64.2331 23.6188 62.9201 22.8565C61.6149 22.0865 60.607 21.0163 59.8965 19.6457C59.1859 18.2675 58.8307 16.6698 58.8307 14.8526C58.8307 13.0201 59.1859 11.4186 59.8965 10.048C60.607 8.66978 61.6149 7.59952 62.9201 6.83725C64.2331 6.06728 65.7893 5.68229 67.5888 5.68229C69.3884 5.68229 70.9407 6.06728 72.246 6.83725C73.5589 7.59952 74.5707 8.66978 75.2812 10.048C75.9918 11.4186 76.347 13.0201 76.347 14.8526C76.347 16.6698 75.9918 18.2675 75.2812 19.6457C74.5707 21.0163 73.5589 22.0865 72.246 22.8565C70.9407 23.6188 69.3884 23.9999 67.5888 23.9999ZM67.612 20.1885C68.4307 20.1885 69.1142 19.9576 69.6625 19.4956C70.2109 19.0259 70.6241 18.3868 70.9021 17.5783C71.1879 16.7699 71.3308 15.8498 71.3308 14.818C71.3308 13.7862 71.1879 12.8661 70.9021 12.0577C70.6241 11.2492 70.2109 10.6101 69.6625 10.1404C69.1142 9.67074 68.4307 9.4359 67.612 9.4359C66.7856 9.4359 66.0905 9.67074 65.5267 10.1404C64.9707 10.6101 64.5497 11.2492 64.264 12.0577C63.9859 12.8661 63.8469 13.7862 63.8469 14.818C63.8469 15.8498 63.9859 16.7699 64.264 17.5783C64.5497 18.3868 64.9707 19.0259 65.5267 19.4956C66.0905 19.9576 66.7856 20.1885 67.612 20.1885Z" fill="white"/>
<path d="M95.4091 5.91328L89.188 23.6534H83.6272L77.4061 5.91328H82.6193L86.3149 18.6063H86.5003L90.1843 5.91328H95.4091Z" fill="white"/>
<path d="M105.238 23.9999C103.438 23.9999 101.882 23.6188 100.569 22.8565C99.264 22.0865 98.2561 21.0163 97.5455 19.6457C96.835 18.2675 96.4797 16.6698 96.4797 14.8526C96.4797 13.0201 96.835 11.4186 97.5455 10.048C98.2561 8.66978 99.264 7.59952 100.569 6.83725C101.882 6.06728 103.438 5.68229 105.238 5.68229C107.037 5.68229 108.59 6.06728 109.895 6.83725C111.208 7.59952 112.22 8.66978 112.93 10.048C113.641 11.4186 113.996 13.0201 113.996 14.8526C113.996 16.6698 113.641 18.2675 112.93 19.6457C112.22 21.0163 111.208 22.0865 109.895 22.8565C108.59 23.6188 107.037 23.9999 105.238 23.9999ZM105.261 20.1885C106.08 20.1885 106.763 19.9576 107.312 19.4956C107.86 19.0259 108.273 18.3868 108.551 17.5783C108.837 16.7699 108.98 15.8498 108.98 14.818C108.98 13.7862 108.837 12.8661 108.551 12.0577C108.273 11.2492 107.86 10.6101 107.312 10.1404C106.763 9.67074 106.08 9.4359 105.261 9.4359C104.435 9.4359 103.74 9.67074 103.176 10.1404C102.62 10.6101 102.199 11.2492 101.913 12.0577C101.635 12.8661 101.496 13.7862 101.496 14.818C101.496 15.8498 101.635 16.7699 101.913 17.5783C102.199 18.3868 102.62 19.0259 103.176 19.4956C103.74 19.9576 104.435 20.1885 105.261 20.1885Z" fill="white"/>
</svg>
